<svg xmlns="http://www.w3.org/2000/svg" width="1200" height="630" viewBox="0 0 1200 630">
<defs><linearGradient id="bg" gradientTransform="rotate(272 0.5 0.5)"><stop offset="0" stop-color="#10b981"/><stop offset="0.55" stop-color="#06b6d4"/><stop offset="1" stop-color="#2563eb"/></linearGradient><filter id="soft"><feGaussianBlur stdDeviation="60"/></filter></defs>
<rect width="1200" height="630" fill="#0f172a"/>
<rect width="1200" height="630" fill="url(#bg)" opacity="0.32"/>
<circle cx="694" cy="144" r="309" fill="#10b981" opacity="0.17" filter="url(#soft)"/><circle cx="289" cy="305" r="219" fill="#06b6d4" opacity="0.17" filter="url(#soft)"/><circle cx="859" cy="121" r="304" fill="#2563eb" opacity="0.15" filter="url(#soft)"/><circle cx="25" cy="384" r="285" fill="#10b981" opacity="0.10" filter="url(#soft)"/><circle cx="600" cy="145" r="274" fill="#06b6d4" opacity="0.12" filter="url(#soft)"/>
<circle cx="1190" cy="93" r="1.8" fill="#b8d8ff" opacity="0.52"/><circle cx="453" cy="176" r="3.0" fill="#b8d8ff" opacity="0.50"/><circle cx="159" cy="424" r="2.0" fill="#b8d8ff" opacity="0.55"/><circle cx="171" cy="3" r="2.8" fill="#b8d8ff" opacity="0.79"/><circle cx="191" cy="44" r="2.8" fill="#b8d8ff" opacity="0.49"/><circle cx="423" cy="335" r="1.2" fill="#b8d8ff" opacity="0.41"/><circle cx="128" cy="213" r="2.2" fill="#b8d8ff" opacity="0.32"/><circle cx="72" cy="47" r="1.5" fill="#b8d8ff" opacity="0.49"/><circle cx="1191" cy="453" r="2.7" fill="#b8d8ff" opacity="0.49"/><circle cx="828" cy="75" r="2.5" fill="#b8d8ff" opacity="0.42"/><circle cx="601" cy="410" r="2.1" fill="#b8d8ff" opacity="0.34"/><circle cx="1192" cy="27" r="1.5" fill="#b8d8ff" opacity="0.68"/><circle cx="1100" cy="486" r="1.4" fill="#b8d8ff" opacity="0.47"/><circle cx="614" cy="144" r="1.9" fill="#b8d8ff" opacity="0.28"/><circle cx="745" cy="553" r="2.4" fill="#b8d8ff" opacity="0.64"/><circle cx="1194" cy="233" r="1.4" fill="#b8d8ff" opacity="0.51"/><circle cx="584" cy="280" r="2.5" fill="#b8d8ff" opacity="0.68"/><circle cx="186" cy="623" r="3.1" fill="#b8d8ff" opacity="0.53"/><circle cx="1154" cy="262" r="2.7" fill="#b8d8ff" opacity="0.35"/><circle cx="1101" cy="545" r="2.0" fill="#b8d8ff" opacity="0.30"/><circle cx="806" cy="348" r="1.8" fill="#b8d8ff" opacity="0.66"/><circle cx="362" cy="310" r="2.1" fill="#b8d8ff" opacity="0.58"/><circle cx="751" cy="421" r="2.7" fill="#b8d8ff" opacity="0.59"/><circle cx="1133" cy="308" r="1.2" fill="#b8d8ff" opacity="0.58"/><circle cx="34" cy="252" r="1.2" fill="#b8d8ff" opacity="0.49"/><circle cx="384" cy="124" r="1.9" fill="#b8d8ff" opacity="0.39"/><circle cx="425" cy="466" r="1.7" fill="#b8d8ff" opacity="0.59"/><circle cx="716" cy="515" r="2.0" fill="#b8d8ff" opacity="0.75"/><circle cx="498" cy="102" r="1.9" fill="#b8d8ff" opacity="0.38"/><circle cx="556" cy="444" r="1.6" fill="#b8d8ff" opacity="0.57"/><circle cx="994" cy="110" r="1.3" fill="#b8d8ff" opacity="0.61"/><circle cx="537" cy="521" r="2.1" fill="#b8d8ff" opacity="0.70"/><circle cx="1083" cy="474" r="1.8" fill="#b8d8ff" opacity="0.48"/><circle cx="855" cy="281" r="3.0" fill="#b8d8ff" opacity="0.31"/><circle cx="1028" cy="306" r="2.7" fill="#b8d8ff" opacity="0.71"/><circle cx="1018" cy="562" r="1.5" fill="#b8d8ff" opacity="0.50"/><circle cx="144" cy="580" r="2.2" fill="#b8d8ff" opacity="0.56"/><circle cx="859" cy="56" r="1.5" fill="#b8d8ff" opacity="0.72"/><circle cx="412" cy="307" r="2.4" fill="#b8d8ff" opacity="0.67"/><circle cx="309" cy="422" r="2.2" fill="#b8d8ff" opacity="0.68"/>
<text x="64" y="147" font-family="ui-sans-serif,system-ui,sans-serif" font-size="46" font-weight="700" fill="#f0f9ff" opacity="0.96">Redis na prática: cache,</text>
<text x="64" y="202" font-family="ui-sans-serif,system-ui,sans-serif" font-size="46" font-weight="700" fill="#f0f9ff" opacity="0.96">rate limiting e filas em</text>
<text x="64" y="257" font-family="ui-sans-serif,system-ui,sans-serif" font-size="46" font-weight="700" fill="#f0f9ff" opacity="0.96">Node.js</text>
<text x="64" y="576" font-family="ui-monospace,monospace" font-size="26" fill="#b8d8ff" opacity="0.85" letter-spacing="4">TUTORIAL</text>
</svg>
