<svg xmlns="http://www.w3.org/2000/svg" width="1200" height="630" viewBox="0 0 1200 630">
<defs><linearGradient id="bg" gradientTransform="rotate(291 0.5 0.5)"><stop offset="0" stop-color="#2563eb"/><stop offset="0.55" stop-color="#10b981"/><stop offset="1" stop-color="#06b6d4"/></linearGradient><filter id="soft"><feGaussianBlur stdDeviation="60"/></filter></defs>
<rect width="1200" height="630" fill="#0f172a"/>
<rect width="1200" height="630" fill="url(#bg)" opacity="0.32"/>
<circle cx="44" cy="540" r="115" fill="#2563eb" opacity="0.16" filter="url(#soft)"/><circle cx="656" cy="570" r="214" fill="#10b981" opacity="0.14" filter="url(#soft)"/><circle cx="348" cy="37" r="296" fill="#06b6d4" opacity="0.20" filter="url(#soft)"/><circle cx="94" cy="68" r="213" fill="#2563eb" opacity="0.23" filter="url(#soft)"/><circle cx="119" cy="259" r="164" fill="#10b981" opacity="0.11" filter="url(#soft)"/>
<circle cx="904" cy="446" r="2.3" fill="#b8d8ff" opacity="0.30"/><circle cx="995" cy="408" r="1.0" fill="#b8d8ff" opacity="0.34"/><circle cx="655" cy="391" r="1.2" fill="#b8d8ff" opacity="0.55"/><circle cx="949" cy="550" r="2.4" fill="#b8d8ff" opacity="0.80"/><circle cx="972" cy="243" r="1.6" fill="#b8d8ff" opacity="0.73"/><circle cx="1190" cy="391" r="1.9" fill="#b8d8ff" opacity="0.69"/><circle cx="637" cy="558" r="2.3" fill="#b8d8ff" opacity="0.30"/><circle cx="593" cy="55" r="3.0" fill="#b8d8ff" opacity="0.56"/><circle cx="146" cy="463" r="3.1" fill="#b8d8ff" opacity="0.54"/><circle cx="234" cy="629" r="1.8" fill="#b8d8ff" opacity="0.44"/><circle cx="777" cy="146" r="1.1" fill="#b8d8ff" opacity="0.55"/><circle cx="711" cy="54" r="2.5" fill="#b8d8ff" opacity="0.35"/><circle cx="1160" cy="17" r="2.0" fill="#b8d8ff" opacity="0.60"/><circle cx="524" cy="551" r="2.9" fill="#b8d8ff" opacity="0.36"/><circle cx="343" cy="239" r="1.5" fill="#b8d8ff" opacity="0.66"/><circle cx="850" cy="443" r="2.2" fill="#b8d8ff" opacity="0.27"/><circle cx="731" cy="324" r="2.4" fill="#b8d8ff" opacity="0.72"/><circle cx="116" cy="443" r="1.8" fill="#b8d8ff" opacity="0.46"/><circle cx="776" cy="33" r="3.1" fill="#b8d8ff" opacity="0.68"/><circle cx="479" cy="599" r="2.8" fill="#b8d8ff" opacity="0.64"/><circle cx="1090" cy="559" r="2.5" fill="#b8d8ff" opacity="0.46"/><circle cx="303" cy="500" r="2.5" fill="#b8d8ff" opacity="0.51"/><circle cx="22" cy="491" r="1.3" fill="#b8d8ff" opacity="0.52"/><circle cx="91" cy="142" r="1.8" fill="#b8d8ff" opacity="0.52"/><circle cx="671" cy="486" r="2.5" fill="#b8d8ff" opacity="0.45"/><circle cx="578" cy="229" r="1.7" fill="#b8d8ff" opacity="0.73"/><circle cx="364" cy="186" r="2.5" fill="#b8d8ff" opacity="0.61"/><circle cx="827" cy="310" r="3.2" fill="#b8d8ff" opacity="0.37"/><circle cx="715" cy="98" r="1.2" fill="#b8d8ff" opacity="0.63"/><circle cx="185" cy="330" r="2.8" fill="#b8d8ff" opacity="0.61"/><circle cx="751" cy="261" r="2.4" fill="#b8d8ff" opacity="0.43"/><circle cx="24" cy="155" r="1.2" fill="#b8d8ff" opacity="0.49"/><circle cx="855" cy="271" r="3.0" fill="#b8d8ff" opacity="0.51"/><circle cx="644" cy="479" r="2.0" fill="#b8d8ff" opacity="0.55"/><circle cx="492" cy="240" r="1.9" fill="#b8d8ff" opacity="0.57"/><circle cx="452" cy="186" r="1.9" fill="#b8d8ff" opacity="0.57"/><circle cx="983" cy="409" r="1.4" fill="#b8d8ff" opacity="0.83"/><circle cx="15" cy="276" r="2.0" fill="#b8d8ff" opacity="0.83"/><circle cx="158" cy="278" r="2.7" fill="#b8d8ff" opacity="0.33"/><circle cx="329" cy="451" r="3.1" fill="#b8d8ff" opacity="0.63"/>
<text x="64" y="147" font-family="ui-sans-serif,system-ui,sans-serif" font-size="46" font-weight="700" fill="#f0f9ff" opacity="0.96">Inteligência Artificial</text>
<text x="64" y="202" font-family="ui-sans-serif,system-ui,sans-serif" font-size="46" font-weight="700" fill="#f0f9ff" opacity="0.96">para desenvolvedores:</text>
<text x="64" y="257" font-family="ui-sans-serif,system-ui,sans-serif" font-size="46" font-weight="700" fill="#f0f9ff" opacity="0.96">LLMs, RAG e agentes</text>
<text x="64" y="576" font-family="ui-monospace,monospace" font-size="26" fill="#b8d8ff" opacity="0.85" letter-spacing="4">ARTIGO</text>
</svg>
