<svg xmlns="http://www.w3.org/2000/svg" width="1200" height="630" viewBox="0 0 1200 630">
<defs><linearGradient id="bg" gradientTransform="rotate(159 0.5 0.5)"><stop offset="0" stop-color="#06b6d4"/><stop offset="0.55" stop-color="#2563eb"/><stop offset="1" stop-color="#10b981"/></linearGradient><filter id="soft"><feGaussianBlur stdDeviation="60"/></filter></defs>
<rect width="1200" height="630" fill="#0f172a"/>
<rect width="1200" height="630" fill="url(#bg)" opacity="0.32"/>
<circle cx="210" cy="104" r="103" fill="#06b6d4" opacity="0.21" filter="url(#soft)"/><circle cx="224" cy="14" r="305" fill="#2563eb" opacity="0.13" filter="url(#soft)"/><circle cx="739" cy="379" r="110" fill="#10b981" opacity="0.19" filter="url(#soft)"/><circle cx="1025" cy="567" r="259" fill="#06b6d4" opacity="0.23" filter="url(#soft)"/><circle cx="765" cy="442" r="154" fill="#2563eb" opacity="0.11" filter="url(#soft)"/>
<circle cx="91" cy="82" r="1.9" fill="#b8d8ff" opacity="0.67"/><circle cx="813" cy="110" r="2.8" fill="#b8d8ff" opacity="0.80"/><circle cx="1132" cy="509" r="3.2" fill="#b8d8ff" opacity="0.65"/><circle cx="526" cy="124" r="2.5" fill="#b8d8ff" opacity="0.51"/><circle cx="1002" cy="592" r="2.6" fill="#b8d8ff" opacity="0.65"/><circle cx="310" cy="377" r="2.6" fill="#b8d8ff" opacity="0.40"/><circle cx="371" cy="43" r="1.8" fill="#b8d8ff" opacity="0.82"/><circle cx="259" cy="586" r="1.9" fill="#b8d8ff" opacity="0.25"/><circle cx="1032" cy="575" r="2.5" fill="#b8d8ff" opacity="0.59"/><circle cx="171" cy="504" r="1.2" fill="#b8d8ff" opacity="0.57"/><circle cx="680" cy="404" r="1.8" fill="#b8d8ff" opacity="0.44"/><circle cx="729" cy="254" r="3.2" fill="#b8d8ff" opacity="0.38"/><circle cx="29" cy="477" r="1.7" fill="#b8d8ff" opacity="0.85"/><circle cx="531" cy="306" r="3.1" fill="#b8d8ff" opacity="0.73"/><circle cx="747" cy="273" r="1.2" fill="#b8d8ff" opacity="0.80"/><circle cx="426" cy="231" r="3.1" fill="#b8d8ff" opacity="0.46"/><circle cx="383" cy="263" r="1.3" fill="#b8d8ff" opacity="0.73"/><circle cx="407" cy="85" r="1.8" fill="#b8d8ff" opacity="0.78"/><circle cx="925" cy="444" r="1.0" fill="#b8d8ff" opacity="0.25"/><circle cx="954" cy="416" r="2.4" fill="#b8d8ff" opacity="0.68"/><circle cx="257" cy="516" r="1.6" fill="#b8d8ff" opacity="0.30"/><circle cx="399" cy="571" r="2.7" fill="#b8d8ff" opacity="0.48"/><circle cx="108" cy="513" r="2.9" fill="#b8d8ff" opacity="0.44"/><circle cx="780" cy="258" r="2.6" fill="#b8d8ff" opacity="0.54"/><circle cx="376" cy="319" r="1.1" fill="#b8d8ff" opacity="0.29"/><circle cx="611" cy="209" r="2.8" fill="#b8d8ff" opacity="0.52"/><circle cx="17" cy="143" r="2.7" fill="#b8d8ff" opacity="0.42"/><circle cx="468" cy="68" r="1.0" fill="#b8d8ff" opacity="0.59"/><circle cx="835" cy="252" r="3.2" fill="#b8d8ff" opacity="0.28"/><circle cx="1129" cy="27" r="2.3" fill="#b8d8ff" opacity="0.61"/><circle cx="1101" cy="173" r="3.2" fill="#b8d8ff" opacity="0.36"/><circle cx="33" cy="422" r="1.8" fill="#b8d8ff" opacity="0.46"/><circle cx="36" cy="135" r="1.0" fill="#b8d8ff" opacity="0.78"/><circle cx="946" cy="160" r="1.8" fill="#b8d8ff" opacity="0.49"/><circle cx="1093" cy="395" r="1.4" fill="#b8d8ff" opacity="0.48"/><circle cx="878" cy="204" r="3.0" fill="#b8d8ff" opacity="0.34"/><circle cx="465" cy="20" r="3.0" fill="#b8d8ff" opacity="0.28"/><circle cx="431" cy="572" r="1.8" fill="#b8d8ff" opacity="0.50"/><circle cx="44" cy="83" r="1.2" fill="#b8d8ff" opacity="0.37"/><circle cx="827" cy="280" r="3.2" fill="#b8d8ff" opacity="0.62"/>
<text x="64" y="147" font-family="ui-sans-serif,system-ui,sans-serif" font-size="46" font-weight="700" fill="#f0f9ff" opacity="0.96">Por que Rust não vai</text>
<text x="64" y="202" font-family="ui-sans-serif,system-ui,sans-serif" font-size="46" font-weight="700" fill="#f0f9ff" opacity="0.96">substituir Go (e</text>
<text x="64" y="257" font-family="ui-sans-serif,system-ui,sans-serif" font-size="46" font-weight="700" fill="#f0f9ff" opacity="0.96">vice-versa)</text>
<text x="64" y="576" font-family="ui-monospace,monospace" font-size="26" fill="#b8d8ff" opacity="0.85" letter-spacing="4">CURIOSIDADE</text>
</svg>
