<svg xmlns="http://www.w3.org/2000/svg" width="1200" height="630" viewBox="0 0 1200 630">
<defs><linearGradient id="bg" gradientTransform="rotate(226 0.5 0.5)"><stop offset="0" stop-color="#10b981"/><stop offset="0.55" stop-color="#06b6d4"/><stop offset="1" stop-color="#2563eb"/></linearGradient><filter id="soft"><feGaussianBlur stdDeviation="60"/></filter></defs>
<rect width="1200" height="630" fill="#0f172a"/>
<rect width="1200" height="630" fill="url(#bg)" opacity="0.32"/>
<circle cx="1095" cy="399" r="148" fill="#10b981" opacity="0.20" filter="url(#soft)"/><circle cx="632" cy="21" r="142" fill="#06b6d4" opacity="0.18" filter="url(#soft)"/><circle cx="948" cy="301" r="229" fill="#2563eb" opacity="0.20" filter="url(#soft)"/><circle cx="1126" cy="556" r="252" fill="#10b981" opacity="0.22" filter="url(#soft)"/><circle cx="27" cy="363" r="153" fill="#06b6d4" opacity="0.24" filter="url(#soft)"/>
<circle cx="441" cy="376" r="2.1" fill="#b8d8ff" opacity="0.35"/><circle cx="403" cy="429" r="1.7" fill="#b8d8ff" opacity="0.48"/><circle cx="1163" cy="461" r="1.5" fill="#b8d8ff" opacity="0.28"/><circle cx="619" cy="125" r="1.2" fill="#b8d8ff" opacity="0.63"/><circle cx="373" cy="424" r="1.3" fill="#b8d8ff" opacity="0.70"/><circle cx="607" cy="463" r="2.5" fill="#b8d8ff" opacity="0.59"/><circle cx="853" cy="389" r="1.4" fill="#b8d8ff" opacity="0.70"/><circle cx="690" cy="588" r="2.9" fill="#b8d8ff" opacity="0.27"/><circle cx="275" cy="513" r="2.4" fill="#b8d8ff" opacity="0.59"/><circle cx="831" cy="138" r="1.3" fill="#b8d8ff" opacity="0.83"/><circle cx="157" cy="375" r="2.5" fill="#b8d8ff" opacity="0.60"/><circle cx="429" cy="431" r="2.6" fill="#b8d8ff" opacity="0.46"/><circle cx="193" cy="556" r="2.6" fill="#b8d8ff" opacity="0.67"/><circle cx="307" cy="311" r="2.3" fill="#b8d8ff" opacity="0.42"/><circle cx="1157" cy="594" r="2.8" fill="#b8d8ff" opacity="0.45"/><circle cx="576" cy="304" r="2.7" fill="#b8d8ff" opacity="0.84"/><circle cx="744" cy="227" r="3.0" fill="#b8d8ff" opacity="0.75"/><circle cx="67" cy="157" r="2.3" fill="#b8d8ff" opacity="0.30"/><circle cx="1105" cy="389" r="2.7" fill="#b8d8ff" opacity="0.37"/><circle cx="323" cy="452" r="1.8" fill="#b8d8ff" opacity="0.75"/><circle cx="674" cy="548" r="1.3" fill="#b8d8ff" opacity="0.75"/><circle cx="186" cy="518" r="1.5" fill="#b8d8ff" opacity="0.49"/><circle cx="947" cy="104" r="1.7" fill="#b8d8ff" opacity="0.48"/><circle cx="962" cy="293" r="1.7" fill="#b8d8ff" opacity="0.43"/><circle cx="903" cy="364" r="2.6" fill="#b8d8ff" opacity="0.32"/><circle cx="351" cy="256" r="2.5" fill="#b8d8ff" opacity="0.25"/><circle cx="918" cy="452" r="3.1" fill="#b8d8ff" opacity="0.83"/><circle cx="898" cy="570" r="1.8" fill="#b8d8ff" opacity="0.60"/><circle cx="650" cy="364" r="2.3" fill="#b8d8ff" opacity="0.39"/><circle cx="24" cy="210" r="3.1" fill="#b8d8ff" opacity="0.37"/><circle cx="152" cy="191" r="2.5" fill="#b8d8ff" opacity="0.44"/><circle cx="246" cy="445" r="1.2" fill="#b8d8ff" opacity="0.72"/><circle cx="125" cy="469" r="2.0" fill="#b8d8ff" opacity="0.72"/><circle cx="215" cy="235" r="1.5" fill="#b8d8ff" opacity="0.59"/><circle cx="1066" cy="239" r="3.2" fill="#b8d8ff" opacity="0.46"/><circle cx="1029" cy="542" r="2.8" fill="#b8d8ff" opacity="0.57"/><circle cx="1177" cy="280" r="2.6" fill="#b8d8ff" opacity="0.37"/><circle cx="151" cy="212" r="3.2" fill="#b8d8ff" opacity="0.26"/><circle cx="1196" cy="160" r="2.1" fill="#b8d8ff" opacity="0.61"/><circle cx="1181" cy="507" r="1.1" fill="#b8d8ff" opacity="0.60"/>
<text x="64" y="168" font-family="ui-sans-serif,system-ui,sans-serif" font-size="56" font-weight="700" fill="#f0f9ff" opacity="0.96">CSS Grid e Flexbox:</text>
<text x="64" y="235" font-family="ui-sans-serif,system-ui,sans-serif" font-size="56" font-weight="700" fill="#f0f9ff" opacity="0.96">quando usar cada um</text>
<text x="64" y="576" font-family="ui-monospace,monospace" font-size="26" fill="#b8d8ff" opacity="0.85" letter-spacing="4">TUTORIAL</text>
</svg>
