<svg xmlns="http://www.w3.org/2000/svg" width="1200" height="630" viewBox="0 0 1200 630">
<defs>
<linearGradient id="bg" gradientTransform="rotate(155 0.5 0.5)">
<stop offset="0" stop-color="#10b981"/><stop offset="0.55" stop-color="#2563eb"/><stop offset="1" stop-color="#06b6d4"/>
</linearGradient>
<filter id="soft"><feGaussianBlur stdDeviation="60"/></filter>
</defs>
<rect width="1200" height="630" fill="#0f172a"/>
<rect width="1200" height="630" fill="url(#bg)" opacity="0.32"/>
<circle cx="117" cy="300" r="287" fill="#10b981" opacity="0.11" filter="url(#soft)"/><circle cx="1024" cy="335" r="189" fill="#2563eb" opacity="0.19" filter="url(#soft)"/><circle cx="611" cy="373" r="112" fill="#06b6d4" opacity="0.21" filter="url(#soft)"/><circle cx="703" cy="68" r="173" fill="#10b981" opacity="0.18" filter="url(#soft)"/><circle cx="153" cy="1" r="256" fill="#2563eb" opacity="0.14" filter="url(#soft)"/>
<circle cx="638" cy="167" r="1.8" fill="#b8d8ff" opacity="0.66"/><circle cx="877" cy="148" r="1.8" fill="#b8d8ff" opacity="0.34"/><circle cx="100" cy="457" r="1.9" fill="#b8d8ff" opacity="0.56"/><circle cx="373" cy="486" r="2.5" fill="#b8d8ff" opacity="0.60"/><circle cx="30" cy="374" r="1.6" fill="#b8d8ff" opacity="0.35"/><circle cx="706" cy="321" r="1.2" fill="#b8d8ff" opacity="0.30"/><circle cx="237" cy="432" r="1.8" fill="#b8d8ff" opacity="0.61"/><circle cx="826" cy="114" r="3.1" fill="#b8d8ff" opacity="0.69"/><circle cx="923" cy="473" r="2.3" fill="#b8d8ff" opacity="0.29"/><circle cx="1133" cy="475" r="1.6" fill="#b8d8ff" opacity="0.69"/><circle cx="1095" cy="150" r="1.9" fill="#b8d8ff" opacity="0.63"/><circle cx="161" cy="209" r="2.5" fill="#b8d8ff" opacity="0.42"/><circle cx="422" cy="39" r="3.1" fill="#b8d8ff" opacity="0.51"/><circle cx="1098" cy="141" r="1.5" fill="#b8d8ff" opacity="0.52"/><circle cx="770" cy="141" r="2.5" fill="#b8d8ff" opacity="0.83"/><circle cx="113" cy="265" r="2.8" fill="#b8d8ff" opacity="0.50"/><circle cx="25" cy="233" r="1.3" fill="#b8d8ff" opacity="0.81"/><circle cx="870" cy="122" r="2.6" fill="#b8d8ff" opacity="0.44"/><circle cx="978" cy="590" r="1.7" fill="#b8d8ff" opacity="0.68"/><circle cx="734" cy="224" r="1.3" fill="#b8d8ff" opacity="0.74"/><circle cx="74" cy="6" r="2.9" fill="#b8d8ff" opacity="0.76"/><circle cx="514" cy="121" r="2.0" fill="#b8d8ff" opacity="0.46"/><circle cx="437" cy="36" r="1.1" fill="#b8d8ff" opacity="0.64"/><circle cx="119" cy="35" r="1.8" fill="#b8d8ff" opacity="0.31"/><circle cx="138" cy="516" r="1.0" fill="#b8d8ff" opacity="0.67"/><circle cx="305" cy="312" r="2.9" fill="#b8d8ff" opacity="0.68"/><circle cx="162" cy="310" r="1.9" fill="#b8d8ff" opacity="0.36"/><circle cx="338" cy="72" r="1.5" fill="#b8d8ff" opacity="0.48"/><circle cx="142" cy="162" r="2.4" fill="#b8d8ff" opacity="0.56"/><circle cx="89" cy="594" r="2.2" fill="#b8d8ff" opacity="0.32"/><circle cx="403" cy="211" r="2.5" fill="#b8d8ff" opacity="0.68"/><circle cx="325" cy="354" r="2.2" fill="#b8d8ff" opacity="0.35"/><circle cx="360" cy="464" r="1.1" fill="#b8d8ff" opacity="0.83"/><circle cx="205" cy="484" r="2.8" fill="#b8d8ff" opacity="0.34"/><circle cx="897" cy="146" r="1.0" fill="#b8d8ff" opacity="0.73"/><circle cx="760" cy="591" r="1.0" fill="#b8d8ff" opacity="0.54"/><circle cx="1036" cy="596" r="2.6" fill="#b8d8ff" opacity="0.29"/><circle cx="1052" cy="446" r="2.4" fill="#b8d8ff" opacity="0.27"/><circle cx="815" cy="600" r="1.1" fill="#b8d8ff" opacity="0.80"/><circle cx="820" cy="550" r="1.1" fill="#b8d8ff" opacity="0.35"/>
<text x="60" y="576" font-family="ui-monospace,monospace" font-size="26" fill="#b8d8ff" opacity="0.85" letter-spacing="4">TUTORIAL</text>
</svg>