<svg xmlns="http://www.w3.org/2000/svg" width="1200" height="630" viewBox="0 0 1200 630">
<defs>
<linearGradient id="bg" gradientTransform="rotate(226 0.5 0.5)">
<stop offset="0" stop-color="#2563eb"/><stop offset="0.55" stop-color="#06b6d4"/><stop offset="1" stop-color="#10b981"/>
</linearGradient>
<filter id="soft"><feGaussianBlur stdDeviation="60"/></filter>
</defs>
<rect width="1200" height="630" fill="#0f172a"/>
<rect width="1200" height="630" fill="url(#bg)" opacity="0.32"/>
<circle cx="830" cy="332" r="97" fill="#2563eb" opacity="0.13" filter="url(#soft)"/><circle cx="688" cy="498" r="195" fill="#06b6d4" opacity="0.19" filter="url(#soft)"/><circle cx="877" cy="591" r="284" fill="#10b981" opacity="0.20" filter="url(#soft)"/><circle cx="1008" cy="14" r="217" fill="#2563eb" opacity="0.14" filter="url(#soft)"/><circle cx="1199" cy="232" r="221" fill="#06b6d4" opacity="0.17" filter="url(#soft)"/>
<circle cx="193" cy="212" r="2.5" fill="#b8d8ff" opacity="0.45"/><circle cx="469" cy="611" r="2.6" fill="#b8d8ff" opacity="0.40"/><circle cx="56" cy="325" r="1.4" fill="#b8d8ff" opacity="0.31"/><circle cx="751" cy="196" r="2.5" fill="#b8d8ff" opacity="0.32"/><circle cx="908" cy="319" r="2.6" fill="#b8d8ff" opacity="0.66"/><circle cx="679" cy="448" r="2.4" fill="#b8d8ff" opacity="0.35"/><circle cx="906" cy="362" r="3.1" fill="#b8d8ff" opacity="0.76"/><circle cx="46" cy="144" r="2.8" fill="#b8d8ff" opacity="0.63"/><circle cx="676" cy="437" r="1.5" fill="#b8d8ff" opacity="0.34"/><circle cx="1157" cy="82" r="2.3" fill="#b8d8ff" opacity="0.66"/><circle cx="706" cy="225" r="2.5" fill="#b8d8ff" opacity="0.69"/><circle cx="417" cy="102" r="2.9" fill="#b8d8ff" opacity="0.68"/><circle cx="839" cy="161" r="2.1" fill="#b8d8ff" opacity="0.61"/><circle cx="333" cy="607" r="3.1" fill="#b8d8ff" opacity="0.75"/><circle cx="391" cy="302" r="2.1" fill="#b8d8ff" opacity="0.71"/><circle cx="1173" cy="391" r="1.8" fill="#b8d8ff" opacity="0.80"/><circle cx="991" cy="35" r="1.5" fill="#b8d8ff" opacity="0.61"/><circle cx="103" cy="580" r="2.4" fill="#b8d8ff" opacity="0.71"/><circle cx="249" cy="169" r="2.6" fill="#b8d8ff" opacity="0.46"/><circle cx="996" cy="354" r="2.9" fill="#b8d8ff" opacity="0.33"/><circle cx="997" cy="98" r="2.8" fill="#b8d8ff" opacity="0.38"/><circle cx="489" cy="497" r="1.4" fill="#b8d8ff" opacity="0.44"/><circle cx="455" cy="505" r="2.0" fill="#b8d8ff" opacity="0.43"/><circle cx="359" cy="474" r="2.3" fill="#b8d8ff" opacity="0.68"/><circle cx="139" cy="184" r="1.9" fill="#b8d8ff" opacity="0.67"/><circle cx="3" cy="482" r="2.6" fill="#b8d8ff" opacity="0.81"/><circle cx="1158" cy="472" r="3.0" fill="#b8d8ff" opacity="0.46"/><circle cx="690" cy="341" r="2.3" fill="#b8d8ff" opacity="0.62"/><circle cx="283" cy="13" r="1.7" fill="#b8d8ff" opacity="0.83"/><circle cx="249" cy="80" r="1.7" fill="#b8d8ff" opacity="0.66"/><circle cx="378" cy="129" r="2.6" fill="#b8d8ff" opacity="0.29"/><circle cx="930" cy="65" r="2.6" fill="#b8d8ff" opacity="0.53"/><circle cx="938" cy="113" r="1.8" fill="#b8d8ff" opacity="0.38"/><circle cx="686" cy="560" r="1.8" fill="#b8d8ff" opacity="0.84"/><circle cx="424" cy="540" r="2.9" fill="#b8d8ff" opacity="0.75"/><circle cx="630" cy="618" r="2.0" fill="#b8d8ff" opacity="0.68"/><circle cx="245" cy="79" r="1.7" fill="#b8d8ff" opacity="0.85"/><circle cx="17" cy="628" r="1.6" fill="#b8d8ff" opacity="0.56"/><circle cx="710" cy="620" r="2.8" fill="#b8d8ff" opacity="0.27"/><circle cx="691" cy="187" r="1.1" fill="#b8d8ff" opacity="0.42"/>
<text x="60" y="576" font-family="ui-monospace,monospace" font-size="26" fill="#b8d8ff" opacity="0.85" letter-spacing="4">TUTORIAL</text>
</svg>