<svg xmlns="http://www.w3.org/2000/svg" width="1200" height="630" viewBox="0 0 1200 630">
<defs>
<linearGradient id="bg" gradientTransform="rotate(159 0.5 0.5)">
<stop offset="0" stop-color="#10b981"/><stop offset="0.55" stop-color="#10b981"/><stop offset="1" stop-color="#10b981"/>
</linearGradient>
<filter id="soft"><feGaussianBlur stdDeviation="60"/></filter>
</defs>
<rect width="1200" height="630" fill="#0f172a"/>
<rect width="1200" height="630" fill="url(#bg)" opacity="0.32"/>
<circle cx="918" cy="117" r="95" fill="#10b981" opacity="0.24" filter="url(#soft)"/><circle cx="282" cy="388" r="222" fill="#10b981" opacity="0.11" filter="url(#soft)"/><circle cx="788" cy="538" r="288" fill="#10b981" opacity="0.21" filter="url(#soft)"/><circle cx="1140" cy="402" r="244" fill="#10b981" opacity="0.14" filter="url(#soft)"/><circle cx="117" cy="48" r="119" fill="#10b981" opacity="0.16" filter="url(#soft)"/>
<circle cx="845" cy="427" r="1.4" fill="#b8d8ff" opacity="0.75"/><circle cx="1094" cy="594" r="2.8" fill="#b8d8ff" opacity="0.84"/><circle cx="804" cy="276" r="1.4" fill="#b8d8ff" opacity="0.67"/><circle cx="525" cy="526" r="3.1" fill="#b8d8ff" opacity="0.67"/><circle cx="799" cy="162" r="2.3" fill="#b8d8ff" opacity="0.69"/><circle cx="305" cy="195" r="1.2" fill="#b8d8ff" opacity="0.47"/><circle cx="1137" cy="136" r="3.0" fill="#b8d8ff" opacity="0.51"/><circle cx="4" cy="542" r="3.0" fill="#b8d8ff" opacity="0.66"/><circle cx="671" cy="90" r="2.8" fill="#b8d8ff" opacity="0.31"/><circle cx="646" cy="357" r="2.4" fill="#b8d8ff" opacity="0.48"/><circle cx="380" cy="383" r="1.9" fill="#b8d8ff" opacity="0.84"/><circle cx="269" cy="15" r="2.7" fill="#b8d8ff" opacity="0.45"/><circle cx="1191" cy="279" r="2.1" fill="#b8d8ff" opacity="0.83"/><circle cx="956" cy="392" r="2.0" fill="#b8d8ff" opacity="0.30"/><circle cx="1093" cy="224" r="1.8" fill="#b8d8ff" opacity="0.82"/><circle cx="418" cy="201" r="1.9" fill="#b8d8ff" opacity="0.32"/><circle cx="968" cy="214" r="1.3" fill="#b8d8ff" opacity="0.48"/><circle cx="1061" cy="486" r="2.6" fill="#b8d8ff" opacity="0.25"/><circle cx="10" cy="501" r="2.5" fill="#b8d8ff" opacity="0.64"/><circle cx="855" cy="135" r="2.8" fill="#b8d8ff" opacity="0.42"/><circle cx="106" cy="210" r="3.0" fill="#b8d8ff" opacity="0.72"/><circle cx="457" cy="57" r="2.8" fill="#b8d8ff" opacity="0.77"/><circle cx="372" cy="409" r="1.9" fill="#b8d8ff" opacity="0.68"/><circle cx="578" cy="197" r="2.1" fill="#b8d8ff" opacity="0.27"/><circle cx="87" cy="321" r="1.7" fill="#b8d8ff" opacity="0.75"/><circle cx="545" cy="9" r="1.5" fill="#b8d8ff" opacity="0.71"/><circle cx="345" cy="246" r="1.2" fill="#b8d8ff" opacity="0.26"/><circle cx="686" cy="438" r="1.9" fill="#b8d8ff" opacity="0.84"/><circle cx="70" cy="593" r="1.1" fill="#b8d8ff" opacity="0.60"/><circle cx="721" cy="578" r="1.6" fill="#b8d8ff" opacity="0.85"/><circle cx="215" cy="17" r="2.5" fill="#b8d8ff" opacity="0.47"/><circle cx="413" cy="19" r="1.5" fill="#b8d8ff" opacity="0.25"/><circle cx="1064" cy="497" r="1.6" fill="#b8d8ff" opacity="0.46"/><circle cx="484" cy="574" r="2.4" fill="#b8d8ff" opacity="0.35"/><circle cx="470" cy="461" r="1.7" fill="#b8d8ff" opacity="0.79"/><circle cx="174" cy="244" r="1.1" fill="#b8d8ff" opacity="0.79"/><circle cx="63" cy="226" r="3.0" fill="#b8d8ff" opacity="0.47"/><circle cx="496" cy="23" r="1.3" fill="#b8d8ff" opacity="0.32"/><circle cx="234" cy="434" r="2.0" fill="#b8d8ff" opacity="0.84"/><circle cx="743" cy="136" r="2.8" fill="#b8d8ff" opacity="0.83"/>
<text x="60" y="576" font-family="ui-monospace,monospace" font-size="26" fill="#b8d8ff" opacity="0.85" letter-spacing="4">CURIOSIDADE</text>
</svg>